<svg xmlns="http://www.w3.org/2000/svg" style="display: none;">
    <symbol id="icon-arrow-down" viewBox="0 0 24 24">
      <path d="M12 16L6 10H18L12 16Z"/>
    </symbol>
    <symbol id="icon-arrow-up" viewBox="0 0 24 24">
      <path d="M12 8L18 14H6L12 8Z"/>
    </symbol>
    <symbol id="icon-profile" viewBox="0 0 24 24">
      <path d="M21.0082 3C21.556 3 22 3.44495 22 3.9934V20.0066C22 20.5552 21.5447 21 21.0082 21H2.9918C2.44405 21 2 20.5551 2 20.0066V3.9934C2 3.44476 2.45531 3 2.9918 3H21.0082ZM20 5H4V19H20V5ZM18 15V17H6V15H18ZM12 7V13H6V7H12ZM18 11V13H14V11H18ZM10 9H8V11H10V9ZM18 7V9H14V7H18Z"></path>
    </symbol>
    <symbol id="icon-settings" viewBox="0 0 24 24">
      <path d="M2 11.9998C2 11.1353 2.1097 10.2964 2.31595 9.49631C3.40622 9.55283 4.48848 9.01015 5.0718 7.99982C5.65467 6.99025 5.58406 5.78271 4.99121 4.86701C6.18354 3.69529 7.66832 2.82022 9.32603 2.36133C9.8222 3.33385 10.8333 3.99982 12 3.99982C13.1667 3.99982 14.1778 3.33385 14.674 2.36133C16.3317 2.82022 17.8165 3.69529 19.0088 4.86701C18.4159 5.78271 18.3453 6.99025 18.9282 7.99982C19.5115 9.01015 20.5938 9.55283 21.6841 9.49631C21.8903 10.2964 22 11.1353 22 11.9998C22 12.8643 21.8903 13.7032 21.6841 14.5033C20.5938 14.4468 19.5115 14.9895 18.9282 15.9998C18.3453 17.0094 18.4159 18.2169 19.0088 19.1326C17.8165 20.3043 16.3317 21.1794 14.674 21.6383C14.1778 20.6658 13.1667 19.9998 12 19.9998C10.8333 19.9998 9.8222 20.6658 9.32603 21.6383C7.66832 21.1794 6.18354 20.3043 4.99121 19.1326C5.58406 18.2169 5.65467 17.0094 5.0718 15.9998C4.48848 14.9895 3.40622 14.4468 2.31595 14.5033C2.1097 13.7032 2 12.8643 2 11.9998ZM6.80385 14.9998C7.43395 16.0912 7.61458 17.3459 7.36818 18.5236C7.77597 18.8138 8.21005 19.0652 8.66489 19.2741C9.56176 18.4712 10.7392 17.9998 12 17.9998C13.2608 17.9998 14.4382 18.4712 15.3351 19.2741C15.7899 19.0652 16.224 18.8138 16.6318 18.5236C16.3854 17.3459 16.566 16.0912 17.1962 14.9998C17.8262 13.9085 18.8225 13.1248 19.9655 12.7493C19.9884 12.5015 20 12.2516 20 11.9998C20 11.7481 19.9884 11.4981 19.9655 11.2504C18.8225 10.8749 17.8262 10.0912 17.1962 8.99982C16.566 7.90845 16.3854 6.65378 16.6318 5.47605C16.224 5.18588 15.7899 4.93447 15.3351 4.72552C14.4382 5.52844 13.2608 5.99982 12 5.99982C10.7392 5.99982 9.56176 5.52844 8.66489 4.72552C8.21005 4.93447 7.77597 5.18588 7.36818 5.47605C7.61458 6.65378 7.43395 7.90845 6.80385 8.99982C6.17376 10.0912 5.17754 10.8749 4.03451 11.2504C4.01157 11.4981 4 11.7481 4 11.9998C4 12.2516 4.01157 12.5015 4.03451 12.7493C5.17754 13.1248 6.17376 13.9085 6.80385 14.9998ZM12 14.9998C10.3431 14.9998 9 13.6567 9 11.9998C9 10.343 10.3431 8.99982 12 8.99982C13.6569 8.99982 15 10.343 15 11.9998C15 13.6567 13.6569 14.9998 12 14.9998ZM12 12.9998C12.5523 12.9998 13 12.5521 13 11.9998C13 11.4475 12.5523 10.9998 12 10.9998C11.4477 10.9998 11 11.4475 11 11.9998C11 12.5521 11.4477 12.9998 12 12.9998Z"></path>
    </symbol>
    <symbol id="icon-logout" viewBox="0 0 24 24">
      <path d="M12 22C6.47715 22 2 17.5228 2 12C2 6.47715 6.47715 2 12 2C15.2713 2 18.1757 3.57078 20.0002 5.99923L17.2909 5.99931C15.8807 4.75499 14.0285 4 12 4C7.58172 4 4 7.58172 4 12C4 16.4183 7.58172 20 12 20C14.029 20 15.8816 19.2446 17.2919 17.9998L20.0009 17.9998C18.1765 20.4288 15.2717 22 12 22ZM19 16V13H11V11H19V8L24 12L19 16Z"></path>
    </symbol>
    <symbol id="icon-delete" viewBox="0 0 24 24">
      <path d="M7 4V2H17V4H22V6H20V21C20 21.5523 19.5523 22 19 22H5C4.44772 22 4 21.5523 4 21V6H2V4H7ZM6 6V20H18V6H6ZM9 9H11V17H9V9ZM13 9H15V17H13V9Z"></path>
    </symbol>
    <symbol id="icon-edit" viewBox="0 0 24 24">
      <path d="M6.41421 15.89L16.5563 5.74786L15.1421 4.33365L5 14.4758V15.89H6.41421ZM7.24264 17.89H3V13.6474L14.435 2.21233C14.8256 1.8218 15.4587 1.8218 15.8492 2.21233L18.6777 5.04075C19.0682 5.43128 19.0682 6.06444 18.6777 6.45497L7.24264 17.89ZM3 19.89H21V21.89H3V19.89Z"></path>
    </symbol>
    <symbol id="icon-notification" viewBox="0 0 24 24">
      <path d="M18 10C18 6.68629 15.3137 4 12 4C8.68629 4 6 6.68629 6 10V18H18V10ZM20 18.6667L20.4 19.2C20.5657 19.4209 20.5209 19.7343 20.3 19.9C20.2135 19.9649 20.1082 20 20 20H4C3.72386 20 3.5 19.7761 3.5 19.5C3.5 19.3918 3.53509 19.2865 3.6 19.2L4 18.6667V10C4 5.58172 7.58172 2 12 2C16.4183 2 20 5.58172 20 10V18.6667ZM9.5 21H14.5C14.5 22.3807 13.3807 23.5 12 23.5C10.6193 23.5 9.5 22.3807 9.5 21Z"></path>
    </symbol>
    <symbol id="icon-share" viewBox="0 0 24 24">
      <path d="M13.5759 17.2714L8.46576 14.484C7.83312 15.112 6.96187 15.5 6 15.5C4.067 15.5 2.5 13.933 2.5 12C2.5 10.067 4.067 8.5 6 8.5C6.96181 8.5 7.83301 8.88796 8.46564 9.51593L13.5759 6.72855C13.5262 6.49354 13.5 6.24983 13.5 6C13.5 4.067 15.067 2.5 17 2.5C18.933 2.5 20.5 4.067 20.5 6C20.5 7.933 18.933 9.5 17 9.5C16.0381 9.5 15.1669 9.11201 14.5343 8.48399L9.42404 11.2713C9.47382 11.5064 9.5 11.7501 9.5 12C9.5 12.2498 9.47383 12.4935 9.42408 12.7285L14.5343 15.516C15.167 14.888 16.0382 14.5 17 14.5C18.933 14.5 20.5 16.067 20.5 18C20.5 19.933 18.933 21.5 17 21.5C15.067 21.5 13.5 19.933 13.5 18C13.5 17.7502 13.5262 17.5064 13.5759 17.2714Z"></path>
    </symbol>
    <symbol id="icon-arrow-down-line" viewBox="0 0 24 24">
      <path d="M12.9999 16.1716L18.3638 10.8076L19.778 12.2218L11.9999 20L4.22168 12.2218L5.63589 10.8076L10.9999 16.1716V4H12.9999V16.1716Z"></path>
    </symbol>
    <symbol id="icon-arrow-up-line" viewBox="0 0 24 24">
      <path d="M12.9999 7.82843V20H10.9999V7.82843L5.63589 13.1924L4.22168 11.7782L11.9999 4L19.778 11.7782L18.3638 13.1924L12.9999 7.82843Z"></path>
    </symbol>
    <symbol id="icon-account" viewBox="0 0 24 24">
      <path d="M12 2C17.5228 2 22 6.47715 22 12C22 17.5228 17.5228 22 12 22C6.47715 22 2 17.5228 2 12C2 6.47715 6.47715 2 12 2ZM12.1597 16C10.1243 16 8.29182 16.8687 7.01276 18.2556C8.38039 19.3474 10.114 20 12 20C13.9695 20 15.7727 19.2883 17.1666 18.1081C15.8956 16.8074 14.1219 16 12.1597 16ZM12 4C7.58172 4 4 7.58172 4 12C4 13.8106 4.6015 15.4807 5.61557 16.8214C7.25639 15.0841 9.58144 14 12.1597 14C14.6441 14 16.8933 15.0066 18.5218 16.6342C19.4526 15.3267 20 13.7273 20 12C20 7.58172 16.4183 4 12 4ZM12 5C14.2091 5 16 6.79086 16 9C16 11.2091 14.2091 13 12 13C9.79086 13 8 11.2091 8 9C8 6.79086 9.79086 5 12 5ZM12 7C10.8954 7 10 7.89543 10 9C10 10.1046 10.8954 11 12 11C13.1046 11 14 10.1046 14 9C14 7.89543 13.1046 7 12 7Z"></path>
    </symbol>
    <symbol id="icon-favourite" viewBox="0 0 24 24">
      <path d="M12.0006 18.26L4.94715 22.2082L6.52248 14.2799L0.587891 8.7918L8.61493 7.84006L12.0006 0.5L15.3862 7.84006L23.4132 8.7918L17.4787 14.2799L19.054 22.2082L12.0006 18.26ZM12.0006 15.968L16.2473 18.3451L15.2988 13.5717L18.8719 10.2674L14.039 9.69434L12.0006 5.27502L9.96214 9.69434L5.12921 10.2674L8.70231 13.5717L7.75383 18.3451L12.0006 15.968Z"></path>
    </symbol>


</svg>
